<?xml version="1.0" standalone="no"?>
<!DOCTYPE svg PUBLIC "-//W3C//DTD SVG 20010904//EN"
 "http://www.w3.org/TR/2001/REC-SVG-20010904/DTD/svg10.dtd">
<svg version="1.0" xmlns="http://www.w3.org/2000/svg"
 width="512.000000pt" height="512.000000pt" viewBox="0 0 512.000000 512.000000"
 preserveAspectRatio="xMidYMid meet">
<metadata>
Created by potrace 1.11, written by Peter Selinger 2001-2013
</metadata>
<g transform="translate(0.000000,512.000000) scale(0.100000,-0.100000)"
fill="#000000" stroke="none">
<path d="M779 4999 c-348 -59 -623 -345 -665 -694 -4 -33 -7 -832 -7 -1775 1
-1704 1 -1716 21 -1797 85 -336 345 -570 687 -620 59 -8 3420 -7 3488 1 177
23 349 106 473 230 121 122 211 304 230 467 9 77 9 3411 0 3489 -10 85 -10 85
-36 160 -78 234 -255 415 -490 504 -63 23 -89 30 -175 42 -22 4 -803 7 -1735
8 -1514 1 -1705 -1 -1791 -15z m966 -1185 c9 -4 20 -16 25 -28 4 -12 96 -170
205 -351 108 -182 283 -475 388 -652 106 -177 194 -322 197 -322 3 0 19 23 36
52 17 29 179 300 359 602 181 303 338 567 349 588 11 22 36 57 54 78 l34 39
193 0 c118 0 203 -4 218 -11 51 -23 74 -110 41 -157 -27 -39 -54 -46 -179 -47
l-120 0 0 -1045 0 -1045 129 0 129 -1 28 -32 c47 -52 37 -131 -21 -165 -25
-15 -69 -17 -368 -17 -222 0 -350 4 -371 11 -64 22 -82 115 -32 171 l28 32
124 2 c68 1 127 2 131 3 4 0 8 407 8 903 0 496 -2 899 -5 897 -5 -6 -395 -660
-395 -664 0 -1 -36 -61 -80 -134 -44 -73 -80 -134 -80 -136 0 -12 -136 -224
-152 -236 -28 -22 -154 -21 -169 1 -14 22 -138 242 -192 340 -16 30 -48 89
-72 130 -23 41 -53 95 -67 120 -14 25 -40 72 -58 105 -18 33 -52 94 -75 135
-54 96 -88 159 -133 240 -19 36 -41 74 -48 84 -11 16 -13 -135 -14 -882 0
-496 4 -903 8 -903 4 -1 63 -2 131 -3 l124 -3 28 -31 c50 -56 32 -149 -32
-171 -44 -15 -699 -15 -732 0 -32 15 -57 60 -57 104 0 27 8 44 29 66 33 32 26
31 176 33 l110 1 0 1045 0 1045 -120 0 c-74 1 -128 6 -142 13 -72 40 -71 157
2 188 32 14 397 20 430 8z"/>
</g>
</svg>
